<?xml version="1.0" encoding="utf-8"?>
<svg viewBox="0 0 500 500" xmlns="http://www.w3.org/2000/svg" height="35" width="35">
    <rect style="stroke: rgb(0, 0, 0); paint-order: stroke; stroke-opacity: 0; fill: rgb(24, 116, 233);" x="0.021"
          y="-2.968" width="500" height="500" rx="100" ry="100"/>
    <path d="M 24.757 31.895 L 480.259 31.895 L 480.259 488.114 L 24.757 488.114 L 24.757 31.895 Z" fill="none"
          style=""/>
    <path d="M 100 351.316 C 100 368.684 107.401 384.277 118.981 395.131 L 118.981 430.261 C 118.981 441.12 127.525 450 137.963 450 L 156.943 450 C 167.384 450 175.925 441.12 175.925 430.261 L 175.925 410.524 L 327.775 410.524 L 327.775 430.261 C 327.775 441.12 336.316 450 346.755 450 L 365.736 450 C 376.177 450 384.719 441.12 384.719 430.261 L 384.719 395.131 C 396.297 384.277 403.7 368.684 403.7 351.316 L 403.7 153.946 C 403.7 84.869 335.747 75 251.851 75 C 167.954 75 100 84.869 100 153.946 L 100 351.316 Z M 166.434 371.052 C 150.681 371.052 137.963 357.829 137.963 341.448 C 137.963 325.066 150.681 311.842 166.434 311.842 C 182.191 311.842 194.905 325.066 194.905 341.448 C 194.905 357.829 182.191 371.052 166.434 371.052 Z M 337.267 371.052 C 321.512 371.052 308.794 357.829 308.794 341.448 C 308.794 325.066 321.512 311.842 337.267 311.842 C 353.019 311.842 365.736 325.066 365.736 341.448 C 365.736 357.829 353.019 371.052 337.267 371.052 Z M 365.736 252.633 L 137.963 252.633 L 137.963 153.946 L 365.736 153.946 L 365.736 252.633 Z"
          style="fill: rgb(255, 255, 255);"/>
</svg>
